<svg xmlns="http://www.w3.org/2000/svg" xmlns:xlink="http://www.w3.org/1999/xlink" width="1920" zoomAndPan="magnify" viewBox="0 0 1440 809.999993" height="1080" preserveAspectRatio="xMidYMid meet" version="1.0"><defs><filter x="0%" y="0%" width="100%" height="100%" id="be77491864"><feColorMatrix values="0 0 0 0 1 0 0 0 0 1 0 0 0 0 1 0 0 0 1 0" color-interpolation-filters="sRGB"/></filter><mask id="aec0887913"><g filter="url(#be77491864)"><rect x="-144" width="1728" fill="#000000" y="-80.999999" height="971.999992" fill-opacity="0.3"/></g></mask><clipPath id="2544844910"><path d="M 0 52 L 1440 52 L 1440 661 L 0 661 Z M 0 52 " clip-rule="nonzero"/></clipPath><clipPath id="b8caf3ab34"><path d="M 506 0.0390625 L 1440 0.0390625 L 1440 661 L 506 661 Z M 506 0.0390625 " clip-rule="nonzero"/></clipPath><mask id="1ccbd8d884"><g filter="url(#be77491864)"><rect x="-316.8" width="2073.6" fill="#000000" y="-327.199998" height="1166.39999" fill-opacity="0.42"/></g></mask><clipPath id="e517083faa"><path d="M 0 0.359375 L 1440 0.359375 L 1440 435 L 0 435 Z M 0 0.359375 " clip-rule="nonzero"/></clipPath><clipPath id="6d220245ee"><rect x="0" width="1440" y="0" height="435"/></clipPath><mask id="fd6dead545"><g filter="url(#be77491864)"><rect x="-316.8" width="2073.6" fill="#000000" y="-327.199998" height="1166.39999" fill-opacity="0.42"/></g></mask><clipPath id="1d7cc66573"><path d="M 0.199219 1 L 1157 1 L 1157 356 L 0.199219 356 Z M 0.199219 1 " clip-rule="nonzero"/></clipPath><clipPath id="802f022117"><rect x="0" width="1157" y="0" height="356"/></clipPath><clipPath id="0600228bc5"><rect x="0" width="1440" y="0" height="661"/></clipPath></defs><g mask="url(#aec0887913)"><g transform="matrix(1, 0, 0, 1, 0, 149)"><g clip-path="url(#0600228bc5)"><g clip-path="url(#2544844910)"><path fill="#d8eeeb" d="M 0.105469 157.535156 C 519.832031 -149 1013.21875 303.605469 1171.242188 423.402344 C 1329.265625 543.195312 1450.394531 583.800781 1450.394531 583.800781 L 1450.394531 673.140625 L 0.105469 673.140625 Z M 0.105469 157.535156 " fill-opacity="1" fill-rule="nonzero"/></g><g clip-path="url(#b8caf3ab34)"><path fill="#21917b" d="M 506.664062 673.140625 C 506.664062 422.296875 852.003906 381.632812 1065.3125 381.632812 C 1278.621094 381.632812 1450.394531 33.738281 1450.394531 0.726562 L 1450.394531 673.140625 Z M 506.664062 673.140625 " fill-opacity="1" fill-rule="nonzero"/></g><g mask="url(#1ccbd8d884)"><g transform="matrix(1, 0, 0, 1, 0, 226)"><g clip-path="url(#6d220245ee)"><g clip-path="url(#e517083faa)"><path fill="#0f3e2b" d="M 0.105469 80.332031 C 221.59375 340.6875 408.273438 23.886719 658.828125 1.785156 C 909.320312 -20.316406 1450.394531 286.679688 1450.394531 286.679688 L 1450.394531 447.140625 L 0.105469 447.140625 Z M 0.105469 80.332031 " fill-opacity="1" fill-rule="nonzero"/></g></g></g></g><g mask="url(#fd6dead545)"><g transform="matrix(1, 0, 0, 1, 283, 305)"><g clip-path="url(#802f022117)"><g clip-path="url(#1d7cc66573)"><path fill="#0f3e2b" d="M 25.609375 368.140625 C 25.609375 368.140625 -65.816406 159.9375 101.78125 31.964844 C 269.375 -96.011719 713.746094 218.875 871.1875 211.21875 C 1028.632812 203.621094 1167.394531 1.332031 1167.394531 1.332031 L 1167.394531 368.140625 Z M 25.609375 368.140625 " fill-opacity="1" fill-rule="nonzero"/></g></g></g></g></g></g></g></svg>